#N canvas 70 29 339 686 10;
#X obj 41 432 bng 15 250 50 0 empty empty empty 17 7 0 10 -262144 -1
-1;
#X obj 41 454 openpanel;
#X obj 86 479 soundfiler;
#X obj 25 624 dac~;
#X msg 104 453 read -resize \$1 echantillon;
#X obj 168 481 table echantillon;
#X msg 104 426 symbol tibetan_chant_2.wav;
#X obj 23 47 comport 1 9600;
#X msg 22 13 close;
#X msg 86 507 282055;
#X obj 22 382 phasor~ 0.75;
#X obj 23 532 *~ 50000;
#X obj 24 590 tabread4~ echantillon;
#X obj 23 567 +~ 1;
#X floatatom 21 331 5 0 0 0 - - -, f 5;
#X msg 22 292 0;
#X obj 22 356 sig~;
#X obj 85 533 bng 15 250 50 0 empty empty empty 17 7 0 10 -262144 -1
-1;
#X obj 104 403 loadbang;
#X msg 139 12 devices;
#X msg 72 12 open 2;
#X msg 22 133 \$1;
#X msg 184 242 set \$1;
#X obj 22 160 - 79;
#X msg 183 267 0.2;
#X obj 22 262 sel 0;
#X obj 23 225 * 0.02;
#X obj 23 188 clip 0 1024;
#X obj 98 323 line;
#X msg 97 295 \$1 33;
#N canvas 0 22 718 599 gererLesStrings 0;
#X obj 15 8 inlet;
#X obj 17 399 outlet;
#X obj 98 194 t f b;
#X obj 98 258 +;
#X obj 125 219 f;
#X obj 125 241 * 10;
#X msg 140 194 0;
#X obj 98 280 t f f;
#X obj 41 308 f;
#X obj 39 44 sel 10 13;
#X obj 135 128 - 48;
#X obj 90 71 moses 48;
#X obj 135 98 moses 58;
#N canvas 605 90 497 483 strings 0;
#X obj 102 96 inlet;
#X obj 102 118 moses 65;
#X obj 147 141 moses 91;
#X obj 192 164 moses 97;
#X obj 237 187 moses 123;
#X text 164 119 A-Z;
#X text 254 165 a-z;
#X obj 147 328 t l l;
#X obj 126 351 list;
#X obj 147 306 list prepend;
#X obj 17 185 inlet print;
#X obj 127 466 outlet;
#X obj 17 232 spigot;
#X obj 17 257 t b b b;
#X msg 99 243 0;
#X obj 330 191 inlet reset;
#X msg 330 215 1;
#X obj 127 438 symbol;
#X obj 127 410 makefilename %c;
#X obj 126 377 route bang;
#X connect 0 0 1 0;
#X connect 1 1 2 0;
#X connect 2 0 9 0;
#X connect 2 1 3 0;
#X connect 3 1 4 0;
#X connect 4 0 9 0;
#X connect 7 0 8 1;
#X connect 7 1 9 1;
#X connect 8 0 19 0;
#X connect 9 0 7 0;
#X connect 10 0 12 0;
#X connect 12 0 13 0;
#X connect 13 0 8 0;
#X connect 13 1 9 1;
#X connect 13 2 14 0;
#X connect 14 0 12 1;
#X connect 15 0 16 0;
#X connect 16 0 12 1;
#X connect 17 0 11 0;
#X connect 18 0 17 0;
#X connect 19 1 18 0;
#X restore 162 322 pd strings;
#X obj 41 346 pack f s;
#X obj 135 156 t f b;
#X obj 39 106 t b b b;
#X connect 0 0 9 0;
#X connect 2 0 3 0;
#X connect 2 1 4 0;
#X connect 3 0 7 0;
#X connect 4 0 5 0;
#X connect 5 0 3 1;
#X connect 6 0 4 1;
#X connect 7 0 8 1;
#X connect 7 1 4 1;
#X connect 8 0 14 0;
#X connect 9 0 16 0;
#X connect 9 2 11 0;
#X connect 10 0 15 0;
#X connect 11 1 12 0;
#X connect 12 0 10 0;
#X connect 12 1 13 1;
#X connect 13 0 14 1;
#X connect 14 0 1 0;
#X connect 15 0 2 0;
#X connect 15 1 13 0;
#X connect 16 0 8 0;
#X connect 16 1 13 2;
#X connect 16 2 6 0;
#X restore 22 92 pd gererLesStrings;
#X msg 58 293 0;
#X connect 0 0 1 0;
#X connect 1 0 4 0;
#X connect 2 0 9 0;
#X connect 4 0 2 0;
#X connect 6 0 4 0;
#X connect 7 0 30 0;
#X connect 8 0 7 0;
#X connect 9 0 11 1;
#X connect 9 0 17 0;
#X connect 10 0 11 0;
#X connect 11 0 13 0;
#X connect 12 0 3 0;
#X connect 12 0 3 1;
#X connect 13 0 12 0;
#X connect 14 0 16 0;
#X connect 15 0 14 0;
#X connect 16 0 10 0;
#X connect 18 0 6 0;
#X connect 19 0 7 0;
#X connect 20 0 7 0;
#X connect 21 0 23 0;
#X connect 22 0 24 0;
#X connect 23 0 27 0;
#X connect 25 0 31 0;
#X connect 25 0 15 0;
#X connect 25 1 29 0;
#X connect 26 0 22 0;
#X connect 26 0 25 0;
#X connect 27 0 26 0;
#X connect 28 0 14 0;
#X connect 29 0 28 0;
#X connect 30 0 21 0;
#X connect 31 0 10 1;
